# xmcd CD database file
# Copyright (C) 1995-1998 Ti Kan
#
# Track frame offsets:
#	150
#	26261
#	48752
#	78395
#	97573
#	115625
#	139300
#	160949
#	177407
#	197814
#	219695
#	233996
#	250033
#	274530
#	296617
#
# Disc length: 4189 seconds
#
# Revision: 2
# Processed by: cddbd v1.4b41PL3 Copyright (c) Steve Scherf et al.
# Submitted via: CDex 1.40Beta2
#
DISCID=c5105b0f
DTITLE=B.B. King - Deuces wild
DYEAR=1900
DGENRE=Blues
TTITLE0=If you love me
TTITLE1=The thrill is gone
TTITLE2=Rock me baby
TTITLE3=Please send me someone to love
TTITLE4=Beby I love you
TTITLE5=Ain´t nobody home
TTITLE6=Pauly's birthday boogie
TTITLE7=There must be a better world somewhere
TTITLE8=Confessin' the blues
TTITLE9=Hummingbird
TTITLE10=Bring it home to me
TTITLE11=Paying the cost to be the boss
TTITLE12=Let the good times roll
TTITLE13=Dangerous mood
TTITLE14=Keep it coming
EXTD=ID3G:   0
EXTT0=
EXTT1=
EXTT2=
EXTT3=
EXTT4=
EXTT5=
EXTT6=
EXTT7=
EXTT8=
EXTT9=
EXTT10=
EXTT11=
EXTT12=
EXTT13=
EXTT14=
PLAYORDER=
